# xmcd
#
# Track frame offsets:
# 150
# 81492
# 190918
# 222570
# 268096
#
# Disc length: 4329 seconds
#
#
# Revision: 0
# Processed by: cddbd v1.5.2PL0 Copyright (c) Steve Scherf et al.
# Submitted via: FreeRIP 2.96 
#
DISCID=4c10e705
DTITLE=Sayers, Dorothy Leigh - Der Tote in der Badewanne
DYEAR=2001
DGENRE=Speech
TTITLE0=01 - Ei, verflixt
TTITLE1=02 - Ausgezeichnet Bunter
TTITLE2=03 - Lord Peter beendete eine Sonate
TTITLE3=04 - Die übrigen Mieter im Hause
TTITLE4=05 - So steht es also Parker
EXTD=gelesen von Christian Brückner
EXTT0=
EXTT1=
EXTT2=
EXTT3=
EXTT4=
PLAYORDER=
